<svg xmlns="http://www.w3.org/2000/svg" viewBox="0 0 32 32" width="32" height="32">
  <defs>
    <linearGradient id="faviconGradient" x1="0%" y1="0%" x2="100%" y2="100%">
      <stop offset="0%" style="stop-color:#3B82F6;stop-opacity:1" />
      <stop offset="100%" style="stop-color:#1D4ED8;stop-opacity:1" />
    </linearGradient>
  </defs>
  
  <!-- Background circle -->
  <circle cx="16" cy="16" r="15" fill="url(#faviconGradient)" stroke="#1E40AF" stroke-width="1"/>
  
  <!-- Calculator body -->
  <rect x="8" y="6" width="16" height="20" rx="2" fill="#FFFFFF" stroke="#E5E7EB" stroke-width="0.5"/>
  
  <!-- Calculator screen -->
  <rect x="9" y="7" width="14" height="4" rx="1" fill="#F3F4F6" stroke="#D1D5DB" stroke-width="0.5"/>
  
  <!-- Calculator buttons -->
  <rect x="9" y="12" width="3" height="3" rx="0.5" fill="#EF4444"/>
  <rect x="13" y="12" width="3" height="3" rx="0.5" fill="#F59E0B"/>
  <rect x="17" y="12" width="3" height="3" rx="0.5" fill="#10B981"/>
  <rect x="21" y="12" width="3" height="3" rx="0.5" fill="#3B82F6"/>
  
  <rect x="9" y="16" width="3" height="3" rx="0.5" fill="#8B5CF6"/>
  <rect x="13" y="16" width="3" height="3" rx="0.5" fill="#EC4899"/>
  <rect x="17" y="16" width="3" height="3" rx="0.5" fill="#06B6D4"/>
  <rect x="21" y="16" width="3" height="3" rx="0.5" fill="#84CC16"/>
  
  <rect x="9" y="20" width="3" height="3" rx="0.5" fill="#F97316"/>
  <rect x="13" y="20" width="3" height="3" rx="0.5" fill="#6366F1"/>
  <rect x="17" y="20" width="3" height="3" rx="0.5" fill="#14B8A6"/>
  <rect x="21" y="20" width="3" height="3" rx="0.5" fill="#F43F5E"/>
  
  <!-- Chart line overlay -->
  <path d="M 4 24 Q 8 20 12 22 Q 16 24 20 18 Q 24 12 28 16" stroke="#FFFFFF" stroke-width="2" fill="none" stroke-linecap="round"/>
</svg> 